<svg xmlns="http://www.w3.org/2000/svg" viewBox="0 0 1100 190" width="1100" height="190" role="img" aria-label="system-brain-mcp — WHERE CODE DEPLOYS · WHAT'S FABRICATED · WHETHER THE LOOP CLOSES">
  <defs>
    <linearGradient id="tr" x1="0" y1="0" x2="1" y2="0">
      <stop offset="0%" stop-color="#0D9488"/><stop offset="55%" stop-color="#5EEAD4"/><stop offset="100%" stop-color="#0D9488"/>
    </linearGradient>
    <linearGradient id="fd" x1="0" y1="0" x2="1" y2="0">
      <stop offset="0%" stop-color="#0D1117" stop-opacity="1"/><stop offset="10%" stop-color="#0D1117" stop-opacity="0"/>
      <stop offset="90%" stop-color="#0D1117" stop-opacity="0"/><stop offset="100%" stop-color="#0D1117" stop-opacity="1"/>
    </linearGradient>
    <radialGradient id="halo" cx="50%" cy="30%" r="60%">
      <stop offset="0%" stop-color="#0D9488" stop-opacity="0.17"/>
      <stop offset="100%" stop-color="#0D9488" stop-opacity="0"/>
    </radialGradient>
    <filter id="gl" x="-50%" y="-50%" width="200%" height="200%">
      <feGaussianBlur stdDeviation="3.5" result="b"/><feMerge><feMergeNode in="b"/><feMergeNode in="SourceGraphic"/></feMerge>
    </filter>
    <clipPath id="cp"><rect width="1100" height="190" rx="14"/></clipPath>
  </defs>
  <g clip-path="url(#cp)">
    <rect width="1100" height="190" fill="#0D1117"/>
    <rect width="1100" height="190" fill="url(#halo)"/>
    <g stroke="#0D9488" stroke-opacity="0.06" stroke-width="1"><line x1="0" y1="0" x2="0" y2="190"/><line x1="55" y1="0" x2="55" y2="190"/><line x1="110" y1="0" x2="110" y2="190"/><line x1="165" y1="0" x2="165" y2="190"/><line x1="220" y1="0" x2="220" y2="190"/><line x1="275" y1="0" x2="275" y2="190"/><line x1="330" y1="0" x2="330" y2="190"/><line x1="385" y1="0" x2="385" y2="190"/><line x1="440" y1="0" x2="440" y2="190"/><line x1="495" y1="0" x2="495" y2="190"/><line x1="550" y1="0" x2="550" y2="190"/><line x1="605" y1="0" x2="605" y2="190"/><line x1="660" y1="0" x2="660" y2="190"/><line x1="715" y1="0" x2="715" y2="190"/><line x1="770" y1="0" x2="770" y2="190"/><line x1="825" y1="0" x2="825" y2="190"/><line x1="880" y1="0" x2="880" y2="190"/><line x1="935" y1="0" x2="935" y2="190"/><line x1="990" y1="0" x2="990" y2="190"/><line x1="1045" y1="0" x2="1045" y2="190"/><line x1="1100" y1="0" x2="1100" y2="190"/></g>
    <path d="M 0.0 152.0 Q 4.6 151.8 6.9 151.4 Q 9.2 151.1 11.5 149.5 Q 13.8 148.0 16.1 143.8 Q 18.4 139.6 20.7 133.5 Q 23.0 127.4 25.3 123.4 Q 27.6 119.4 29.9 121.5 Q 32.2 123.6 34.5 129.8 Q 36.8 136.0 39.1 140.9 Q 41.4 145.8 43.7 148.3 Q 46.0 150.7 48.3 151.6 Q 50.6 152.5 52.9 150.7 Q 55.2 149.0 57.5 146.3 Q 59.8 143.6 62.1 142.0 Q 64.4 140.4 66.7 140.5 Q 69.0 140.6 71.3 142.2 Q 73.6 143.8 75.9 145.4 Q 78.2 147.0 80.5 148.3 Q 82.8 149.6 85.1 150.1 Q 87.4 150.6 89.7 150.8 Q 92.1 151.0 94.4 150.9 Q 96.7 150.8 99.0 150.8 Q 101.3 150.9 103.6 150.7 Q 105.9 150.6 108.2 150.6 Q 110.5 150.6 112.8 150.6 Q 115.1 150.6 117.4 150.8 Q 119.7 151.0 122.0 150.8 Q 124.3 150.6 126.6 150.5 Q 128.9 150.4 131.2 150.4 Q 133.5 150.4 135.8 150.5 Q 138.1 150.6 140.4 150.5 Q 142.7 150.4 145.0 150.4 Q 147.3 150.5 149.6 150.4 Q 151.9 150.4 154.2 150.2 Q 156.5 150.0 158.8 150.1 Q 161.1 150.3 163.4 149.9 Q 165.7 149.5 168.0 148.1 Q 170.3 146.7 172.6 143.2 Q 174.9 139.6 177.2 133.5 Q 179.5 127.4 181.8 122.9 Q 184.1 118.3 186.4 119.7 Q 188.7 121.1 191.0 127.0 Q 193.3 132.9 195.6 138.1 Q 197.9 143.3 200.2 146.0 Q 202.5 148.7 204.8 150.2 Q 207.1 151.6 209.4 150.1 Q 211.7 148.5 214.0 145.7 Q 216.3 143.0 218.6 141.3 Q 220.9 139.7 223.2 139.4 Q 225.5 139.1 227.8 140.6 Q 230.1 142.0 232.4 143.9 Q 234.7 145.9 237.0 147.0 Q 239.3 148.2 241.6 148.8 Q 243.9 149.4 246.2 149.7 Q 248.5 150.0 250.8 150.0 Q 253.1 150.0 255.4 150.1 Q 257.7 150.2 260.0 150.1 Q 262.3 150.1 264.6 150.0 Q 266.9 149.9 269.2 150.2 Q 271.5 150.4 273.8 150.3 Q 276.2 150.2 278.5 150.3 Q 280.8 150.4 283.1 150.4 Q 285.4 150.3 287.7 150.5 Q 290.0 150.6 292.3 150.6 Q 294.6 150.5 296.9 150.5 Q 299.2 150.5 301.5 150.4 Q 303.8 150.3 306.1 150.3 Q 308.4 150.3 310.7 150.6 Q 313.0 150.8 315.3 150.8 Q 317.6 150.7 319.9 150.4 Q 322.2 150.1 324.5 149.2 Q 326.8 148.4 329.1 145.0 Q 331.4 141.6 333.7 135.8 Q 336.0 129.9 338.3 124.8 Q 340.6 119.6 342.9 120.1 Q 345.2 120.6 347.5 126.3 Q 349.8 131.9 352.1 137.5 Q 354.4 143.1 356.7 146.3 Q 359.0 149.5 361.3 150.8 Q 363.6 152.1 365.9 151.3 Q 368.2 150.6 370.5 147.8 Q 372.8 145.0 375.1 143.0 Q 377.4 141.0 379.7 140.9 Q 382.0 140.7 384.3 141.9 Q 386.6 143.1 388.9 145.0 Q 391.2 146.8 393.5 148.1 Q 395.8 149.4 398.1 150.2 Q 400.4 151.0 402.7 151.2 Q 405.0 151.3 407.3 151.5 Q 409.6 151.6 411.9 151.8 Q 414.2 151.9 416.5 151.8 Q 418.8 151.8 421.1 151.9 Q 423.4 152.1 425.7 152.0 Q 428.0 151.9 430.3 152.0 Q 432.6 152.1 434.9 152.1 Q 437.2 152.1 439.5 152.3 Q 441.8 152.5 444.1 152.4 Q 446.4 152.3 448.7 152.5 Q 451.0 152.7 453.3 152.8 Q 455.6 152.9 457.9 152.7 Q 460.3 152.6 462.6 152.7 Q 464.9 152.8 467.2 152.7 Q 469.5 152.6 471.8 152.4 Q 474.1 152.2 476.4 152.4 Q 478.7 152.6 481.0 151.7 Q 483.3 150.8 485.6 147.9 Q 487.9 144.9 490.2 139.3 Q 492.5 133.8 494.8 128.3 Q 497.1 122.9 499.4 122.5 Q 501.7 122.0 504.0 127.0 Q 506.3 132.0 508.6 137.9 Q 510.9 143.8 513.2 147.4 Q 515.5 151.1 517.8 152.7 Q 520.1 154.3 522.4 153.8 Q 524.7 153.2 527.0 150.6 Q 529.3 148.1 531.6 145.8 Q 533.9 143.5 536.2 143.1 Q 538.5 142.7 540.8 143.6 Q 543.1 144.5 545.4 146.3 Q 547.7 148.1 550.0 149.6 Q 552.3 151.1 554.6 152.0 Q 556.9 152.9 559.2 153.2 Q 561.5 153.5 563.8 153.7 Q 566.1 154.0 568.4 154.0 Q 570.7 153.9 573.0 153.8 Q 575.3 153.7 577.6 153.9 Q 579.9 154.2 582.2 153.9 Q 584.5 153.6 586.8 153.9 Q 589.1 154.2 591.4 153.9 Q 593.7 153.7 596.0 153.9 Q 598.3 154.0 600.6 153.9 Q 602.9 153.7 605.2 153.8 Q 607.5 153.9 609.8 154.0 Q 612.1 154.2 614.4 153.9 Q 616.7 153.7 619.0 153.7 Q 621.3 153.6 623.6 153.8 Q 625.9 153.9 628.2 154.0 Q 630.5 154.0 632.8 153.8 Q 635.1 153.7 637.4 153.0 Q 639.7 152.4 642.1 149.7 Q 644.4 147.0 646.7 141.8 Q 649.0 136.7 651.3 130.8 Q 653.6 125.0 655.9 123.6 Q 658.2 122.3 660.5 126.8 Q 662.8 131.2 665.1 137.3 Q 667.4 143.4 669.7 147.0 Q 672.0 150.6 674.3 152.6 Q 676.6 154.6 678.9 154.3 Q 681.2 154.1 683.5 151.6 Q 685.8 149.1 688.1 146.8 Q 690.4 144.4 692.7 143.7 Q 695.0 142.9 697.3 143.7 Q 699.6 144.5 701.9 146.2 Q 704.2 147.8 706.5 149.3 Q 708.8 150.9 711.1 151.8 Q 713.4 152.6 715.7 153.1 Q 718.0 153.6 720.3 153.6 Q 722.6 153.6 724.9 153.4 Q 727.2 153.2 729.5 153.4 Q 731.8 153.6 734.1 153.6 Q 736.4 153.6 738.7 153.5 Q 741.0 153.3 743.3 153.2 Q 745.6 153.0 747.9 153.3 Q 750.2 153.5 752.5 153.4 Q 754.8 153.3 757.1 153.3 Q 759.4 153.3 761.7 153.4 Q 764.0 153.5 766.3 153.2 Q 768.6 152.9 770.9 153.0 Q 773.2 153.0 775.5 153.0 Q 777.8 152.9 780.1 153.0 Q 782.4 153.0 784.7 152.9 Q 787.0 152.7 789.3 152.7 Q 791.6 152.7 793.9 152.0 Q 796.2 151.4 798.5 149.2 Q 800.8 147.1 803.1 142.2 Q 805.4 137.3 807.7 131.0 Q 810.0 124.6 812.3 122.5 Q 814.6 120.4 816.9 124.1 Q 819.2 127.8 821.5 133.9 Q 823.8 140.1 826.2 144.3 Q 828.5 148.5 830.8 150.6 Q 833.1 152.7 835.4 152.7 Q 837.7 152.8 840.0 150.5 Q 842.3 148.3 844.6 145.7 Q 846.9 143.1 849.2 142.0 Q 851.5 141.0 853.8 141.5 Q 856.1 142.0 858.4 143.6 Q 860.7 145.2 863.0 146.8 Q 865.3 148.4 867.6 149.5 Q 869.9 150.6 872.2 151.0 Q 874.5 151.5 876.8 151.4 Q 879.1 151.3 881.4 151.3 Q 883.7 151.3 886.0 151.3 Q 888.3 151.4 890.6 151.3 Q 892.9 151.2 895.2 151.2 Q 897.5 151.1 899.8 151.1 Q 902.1 151.1 904.4 151.0 Q 906.7 151.0 909.0 151.1 Q 911.3 151.2 913.6 151.0 Q 915.9 150.7 918.2 151.0 Q 920.5 151.2 922.8 151.0 Q 925.1 150.8 927.4 150.8 Q 929.7 150.8 932.0 150.7 Q 934.3 150.7 936.6 150.5 Q 938.9 150.4 941.2 150.4 Q 943.5 150.4 945.8 150.6 Q 948.1 150.7 950.4 150.3 Q 952.7 149.9 955.0 147.7 Q 957.3 145.6 959.6 141.3 Q 961.9 136.9 964.2 130.7 Q 966.5 124.4 968.8 121.2 Q 971.1 118.0 973.4 121.3 Q 975.7 124.6 978.0 130.7 Q 980.3 136.9 982.6 141.2 Q 984.9 145.6 987.2 147.9 Q 989.5 150.2 991.8 150.8 Q 994.1 151.4 996.4 149.3 Q 998.7 147.2 1001.0 144.6 Q 1003.3 142.0 1005.6 140.8 Q 1007.9 139.6 1010.3 139.9 Q 1012.6 140.2 1014.9 141.8 Q 1017.2 143.4 1019.5 145.1 Q 1021.8 146.8 1024.1 147.7 Q 1026.4 148.6 1028.7 149.1 Q 1031.0 149.7 1033.3 149.8 Q 1035.6 149.9 1037.9 150.1 Q 1040.2 150.3 1042.5 150.2 Q 1044.8 150.2 1047.1 150.2 Q 1049.4 150.3 1051.7 150.2 Q 1054.0 150.2 1056.3 150.1 Q 1058.6 150.0 1060.9 150.1 Q 1063.2 150.2 1065.5 150.1 Q 1067.8 150.0 1070.1 150.0 Q 1072.4 150.0 1074.7 149.8 Q 1077.0 149.7 1079.3 150.0 Q 1081.6 150.4 1083.9 150.1 Q 1086.2 149.9 1088.5 150.0 Q 1090.8 150.1 1093.1 150.1 Q 1095.4 150.1 1097.7 150.3 T 1100.0 150.4" fill="none" stroke="#0D9488" stroke-opacity="0.20" stroke-width="1.8" stroke-linecap="round"/>
    <path d="M 0.0 152.0 Q 4.6 151.8 6.9 151.4 Q 9.2 151.1 11.5 149.5 Q 13.8 148.0 16.1 143.8 Q 18.4 139.6 20.7 133.5 Q 23.0 127.4 25.3 123.4 Q 27.6 119.4 29.9 121.5 Q 32.2 123.6 34.5 129.8 Q 36.8 136.0 39.1 140.9 Q 41.4 145.8 43.7 148.3 Q 46.0 150.7 48.3 151.6 Q 50.6 152.5 52.9 150.7 Q 55.2 149.0 57.5 146.3 Q 59.8 143.6 62.1 142.0 Q 64.4 140.4 66.7 140.5 Q 69.0 140.6 71.3 142.2 Q 73.6 143.8 75.9 145.4 Q 78.2 147.0 80.5 148.3 Q 82.8 149.6 85.1 150.1 Q 87.4 150.6 89.7 150.8 Q 92.1 151.0 94.4 150.9 Q 96.7 150.8 99.0 150.8 Q 101.3 150.9 103.6 150.7 Q 105.9 150.6 108.2 150.6 Q 110.5 150.6 112.8 150.6 Q 115.1 150.6 117.4 150.8 Q 119.7 151.0 122.0 150.8 Q 124.3 150.6 126.6 150.5 Q 128.9 150.4 131.2 150.4 Q 133.5 150.4 135.8 150.5 Q 138.1 150.6 140.4 150.5 Q 142.7 150.4 145.0 150.4 Q 147.3 150.5 149.6 150.4 Q 151.9 150.4 154.2 150.2 Q 156.5 150.0 158.8 150.1 Q 161.1 150.3 163.4 149.9 Q 165.7 149.5 168.0 148.1 Q 170.3 146.7 172.6 143.2 Q 174.9 139.6 177.2 133.5 Q 179.5 127.4 181.8 122.9 Q 184.1 118.3 186.4 119.7 Q 188.7 121.1 191.0 127.0 Q 193.3 132.9 195.6 138.1 Q 197.9 143.3 200.2 146.0 Q 202.5 148.7 204.8 150.2 Q 207.1 151.6 209.4 150.1 Q 211.7 148.5 214.0 145.7 Q 216.3 143.0 218.6 141.3 Q 220.9 139.7 223.2 139.4 Q 225.5 139.1 227.8 140.6 Q 230.1 142.0 232.4 143.9 Q 234.7 145.9 237.0 147.0 Q 239.3 148.2 241.6 148.8 Q 243.9 149.4 246.2 149.7 Q 248.5 150.0 250.8 150.0 Q 253.1 150.0 255.4 150.1 Q 257.7 150.2 260.0 150.1 Q 262.3 150.1 264.6 150.0 Q 266.9 149.9 269.2 150.2 Q 271.5 150.4 273.8 150.3 Q 276.2 150.2 278.5 150.3 Q 280.8 150.4 283.1 150.4 Q 285.4 150.3 287.7 150.5 Q 290.0 150.6 292.3 150.6 Q 294.6 150.5 296.9 150.5 Q 299.2 150.5 301.5 150.4 Q 303.8 150.3 306.1 150.3 Q 308.4 150.3 310.7 150.6 Q 313.0 150.8 315.3 150.8 Q 317.6 150.7 319.9 150.4 Q 322.2 150.1 324.5 149.2 Q 326.8 148.4 329.1 145.0 Q 331.4 141.6 333.7 135.8 Q 336.0 129.9 338.3 124.8 Q 340.6 119.6 342.9 120.1 Q 345.2 120.6 347.5 126.3 Q 349.8 131.9 352.1 137.5 Q 354.4 143.1 356.7 146.3 Q 359.0 149.5 361.3 150.8 Q 363.6 152.1 365.9 151.3 Q 368.2 150.6 370.5 147.8 Q 372.8 145.0 375.1 143.0 Q 377.4 141.0 379.7 140.9 Q 382.0 140.7 384.3 141.9 Q 386.6 143.1 388.9 145.0 Q 391.2 146.8 393.5 148.1 Q 395.8 149.4 398.1 150.2 Q 400.4 151.0 402.7 151.2 Q 405.0 151.3 407.3 151.5 Q 409.6 151.6 411.9 151.8 Q 414.2 151.9 416.5 151.8 Q 418.8 151.8 421.1 151.9 Q 423.4 152.1 425.7 152.0 Q 428.0 151.9 430.3 152.0 Q 432.6 152.1 434.9 152.1 Q 437.2 152.1 439.5 152.3 Q 441.8 152.5 444.1 152.4 Q 446.4 152.3 448.7 152.5 Q 451.0 152.7 453.3 152.8 Q 455.6 152.9 457.9 152.7 Q 460.3 152.6 462.6 152.7 Q 464.9 152.8 467.2 152.7 Q 469.5 152.6 471.8 152.4 Q 474.1 152.2 476.4 152.4 Q 478.7 152.6 481.0 151.7 Q 483.3 150.8 485.6 147.9 Q 487.9 144.9 490.2 139.3 Q 492.5 133.8 494.8 128.3 Q 497.1 122.9 499.4 122.5 Q 501.7 122.0 504.0 127.0 Q 506.3 132.0 508.6 137.9 Q 510.9 143.8 513.2 147.4 Q 515.5 151.1 517.8 152.7 Q 520.1 154.3 522.4 153.8 Q 524.7 153.2 527.0 150.6 Q 529.3 148.1 531.6 145.8 Q 533.9 143.5 536.2 143.1 Q 538.5 142.7 540.8 143.6 Q 543.1 144.5 545.4 146.3 Q 547.7 148.1 550.0 149.6 Q 552.3 151.1 554.6 152.0 Q 556.9 152.9 559.2 153.2 Q 561.5 153.5 563.8 153.7 Q 566.1 154.0 568.4 154.0 Q 570.7 153.9 573.0 153.8 Q 575.3 153.7 577.6 153.9 Q 579.9 154.2 582.2 153.9 Q 584.5 153.6 586.8 153.9 Q 589.1 154.2 591.4 153.9 Q 593.7 153.7 596.0 153.9 Q 598.3 154.0 600.6 153.9 Q 602.9 153.7 605.2 153.8 Q 607.5 153.9 609.8 154.0 Q 612.1 154.2 614.4 153.9 Q 616.7 153.7 619.0 153.7 Q 621.3 153.6 623.6 153.8 Q 625.9 153.9 628.2 154.0 Q 630.5 154.0 632.8 153.8 Q 635.1 153.7 637.4 153.0 Q 639.7 152.4 642.1 149.7 Q 644.4 147.0 646.7 141.8 Q 649.0 136.7 651.3 130.8 Q 653.6 125.0 655.9 123.6 Q 658.2 122.3 660.5 126.8 Q 662.8 131.2 665.1 137.3 Q 667.4 143.4 669.7 147.0 Q 672.0 150.6 674.3 152.6 Q 676.6 154.6 678.9 154.3 Q 681.2 154.1 683.5 151.6 Q 685.8 149.1 688.1 146.8 Q 690.4 144.4 692.7 143.7 Q 695.0 142.9 697.3 143.7 Q 699.6 144.5 701.9 146.2 Q 704.2 147.8 706.5 149.3 Q 708.8 150.9 711.1 151.8 Q 713.4 152.6 715.7 153.1 Q 718.0 153.6 720.3 153.6 Q 722.6 153.6 724.9 153.4 Q 727.2 153.2 729.5 153.4 Q 731.8 153.6 734.1 153.6 Q 736.4 153.6 738.7 153.5 Q 741.0 153.3 743.3 153.2 Q 745.6 153.0 747.9 153.3 Q 750.2 153.5 752.5 153.4 Q 754.8 153.3 757.1 153.3 Q 759.4 153.3 761.7 153.4 Q 764.0 153.5 766.3 153.2 Q 768.6 152.9 770.9 153.0 Q 773.2 153.0 775.5 153.0 Q 777.8 152.9 780.1 153.0 Q 782.4 153.0 784.7 152.9 Q 787.0 152.7 789.3 152.7 Q 791.6 152.7 793.9 152.0 Q 796.2 151.4 798.5 149.2 Q 800.8 147.1 803.1 142.2 Q 805.4 137.3 807.7 131.0 Q 810.0 124.6 812.3 122.5 Q 814.6 120.4 816.9 124.1 Q 819.2 127.8 821.5 133.9 Q 823.8 140.1 826.2 144.3 Q 828.5 148.5 830.8 150.6 Q 833.1 152.7 835.4 152.7 Q 837.7 152.8 840.0 150.5 Q 842.3 148.3 844.6 145.7 Q 846.9 143.1 849.2 142.0 Q 851.5 141.0 853.8 141.5 Q 856.1 142.0 858.4 143.6 Q 860.7 145.2 863.0 146.8 Q 865.3 148.4 867.6 149.5 Q 869.9 150.6 872.2 151.0 Q 874.5 151.5 876.8 151.4 Q 879.1 151.3 881.4 151.3 Q 883.7 151.3 886.0 151.3 Q 888.3 151.4 890.6 151.3 Q 892.9 151.2 895.2 151.2 Q 897.5 151.1 899.8 151.1 Q 902.1 151.1 904.4 151.0 Q 906.7 151.0 909.0 151.1 Q 911.3 151.2 913.6 151.0 Q 915.9 150.7 918.2 151.0 Q 920.5 151.2 922.8 151.0 Q 925.1 150.8 927.4 150.8 Q 929.7 150.8 932.0 150.7 Q 934.3 150.7 936.6 150.5 Q 938.9 150.4 941.2 150.4 Q 943.5 150.4 945.8 150.6 Q 948.1 150.7 950.4 150.3 Q 952.7 149.9 955.0 147.7 Q 957.3 145.6 959.6 141.3 Q 961.9 136.9 964.2 130.7 Q 966.5 124.4 968.8 121.2 Q 971.1 118.0 973.4 121.3 Q 975.7 124.6 978.0 130.7 Q 980.3 136.9 982.6 141.2 Q 984.9 145.6 987.2 147.9 Q 989.5 150.2 991.8 150.8 Q 994.1 151.4 996.4 149.3 Q 998.7 147.2 1001.0 144.6 Q 1003.3 142.0 1005.6 140.8 Q 1007.9 139.6 1010.3 139.9 Q 1012.6 140.2 1014.9 141.8 Q 1017.2 143.4 1019.5 145.1 Q 1021.8 146.8 1024.1 147.7 Q 1026.4 148.6 1028.7 149.1 Q 1031.0 149.7 1033.3 149.8 Q 1035.6 149.9 1037.9 150.1 Q 1040.2 150.3 1042.5 150.2 Q 1044.8 150.2 1047.1 150.2 Q 1049.4 150.3 1051.7 150.2 Q 1054.0 150.2 1056.3 150.1 Q 1058.6 150.0 1060.9 150.1 Q 1063.2 150.2 1065.5 150.1 Q 1067.8 150.0 1070.1 150.0 Q 1072.4 150.0 1074.7 149.8 Q 1077.0 149.7 1079.3 150.0 Q 1081.6 150.4 1083.9 150.1 Q 1086.2 149.9 1088.5 150.0 Q 1090.8 150.1 1093.1 150.1 Q 1095.4 150.1 1097.7 150.3 T 1100.0 150.4" fill="none" stroke="url(#tr)" stroke-width="2.4" stroke-linecap="round" filter="url(#gl)"
          stroke-dasharray="300 1416" stroke-dashoffset="1716">
      <animate attributeName="stroke-dashoffset" from="1716" to="0" dur="6s" repeatCount="indefinite"/>
    </path>
    <circle r="4" fill="#5EEAD4" filter="url(#gl)">
      <animateMotion dur="4.95s" repeatCount="indefinite" path="M 0.0 152.0 Q 4.6 151.8 6.9 151.4 Q 9.2 151.1 11.5 149.5 Q 13.8 148.0 16.1 143.8 Q 18.4 139.6 20.7 133.5 Q 23.0 127.4 25.3 123.4 Q 27.6 119.4 29.9 121.5 Q 32.2 123.6 34.5 129.8 Q 36.8 136.0 39.1 140.9 Q 41.4 145.8 43.7 148.3 Q 46.0 150.7 48.3 151.6 Q 50.6 152.5 52.9 150.7 Q 55.2 149.0 57.5 146.3 Q 59.8 143.6 62.1 142.0 Q 64.4 140.4 66.7 140.5 Q 69.0 140.6 71.3 142.2 Q 73.6 143.8 75.9 145.4 Q 78.2 147.0 80.5 148.3 Q 82.8 149.6 85.1 150.1 Q 87.4 150.6 89.7 150.8 Q 92.1 151.0 94.4 150.9 Q 96.7 150.8 99.0 150.8 Q 101.3 150.9 103.6 150.7 Q 105.9 150.6 108.2 150.6 Q 110.5 150.6 112.8 150.6 Q 115.1 150.6 117.4 150.8 Q 119.7 151.0 122.0 150.8 Q 124.3 150.6 126.6 150.5 Q 128.9 150.4 131.2 150.4 Q 133.5 150.4 135.8 150.5 Q 138.1 150.6 140.4 150.5 Q 142.7 150.4 145.0 150.4 Q 147.3 150.5 149.6 150.4 Q 151.9 150.4 154.2 150.2 Q 156.5 150.0 158.8 150.1 Q 161.1 150.3 163.4 149.9 Q 165.7 149.5 168.0 148.1 Q 170.3 146.7 172.6 143.2 Q 174.9 139.6 177.2 133.5 Q 179.5 127.4 181.8 122.9 Q 184.1 118.3 186.4 119.7 Q 188.7 121.1 191.0 127.0 Q 193.3 132.9 195.6 138.1 Q 197.9 143.3 200.2 146.0 Q 202.5 148.7 204.8 150.2 Q 207.1 151.6 209.4 150.1 Q 211.7 148.5 214.0 145.7 Q 216.3 143.0 218.6 141.3 Q 220.9 139.7 223.2 139.4 Q 225.5 139.1 227.8 140.6 Q 230.1 142.0 232.4 143.9 Q 234.7 145.9 237.0 147.0 Q 239.3 148.2 241.6 148.8 Q 243.9 149.4 246.2 149.7 Q 248.5 150.0 250.8 150.0 Q 253.1 150.0 255.4 150.1 Q 257.7 150.2 260.0 150.1 Q 262.3 150.1 264.6 150.0 Q 266.9 149.9 269.2 150.2 Q 271.5 150.4 273.8 150.3 Q 276.2 150.2 278.5 150.3 Q 280.8 150.4 283.1 150.4 Q 285.4 150.3 287.7 150.5 Q 290.0 150.6 292.3 150.6 Q 294.6 150.5 296.9 150.5 Q 299.2 150.5 301.5 150.4 Q 303.8 150.3 306.1 150.3 Q 308.4 150.3 310.7 150.6 Q 313.0 150.8 315.3 150.8 Q 317.6 150.7 319.9 150.4 Q 322.2 150.1 324.5 149.2 Q 326.8 148.4 329.1 145.0 Q 331.4 141.6 333.7 135.8 Q 336.0 129.9 338.3 124.8 Q 340.6 119.6 342.9 120.1 Q 345.2 120.6 347.5 126.3 Q 349.8 131.9 352.1 137.5 Q 354.4 143.1 356.7 146.3 Q 359.0 149.5 361.3 150.8 Q 363.6 152.1 365.9 151.3 Q 368.2 150.6 370.5 147.8 Q 372.8 145.0 375.1 143.0 Q 377.4 141.0 379.7 140.9 Q 382.0 140.7 384.3 141.9 Q 386.6 143.1 388.9 145.0 Q 391.2 146.8 393.5 148.1 Q 395.8 149.4 398.1 150.2 Q 400.4 151.0 402.7 151.2 Q 405.0 151.3 407.3 151.5 Q 409.6 151.6 411.9 151.8 Q 414.2 151.9 416.5 151.8 Q 418.8 151.8 421.1 151.9 Q 423.4 152.1 425.7 152.0 Q 428.0 151.9 430.3 152.0 Q 432.6 152.1 434.9 152.1 Q 437.2 152.1 439.5 152.3 Q 441.8 152.5 444.1 152.4 Q 446.4 152.3 448.7 152.5 Q 451.0 152.7 453.3 152.8 Q 455.6 152.9 457.9 152.7 Q 460.3 152.6 462.6 152.7 Q 464.9 152.8 467.2 152.7 Q 469.5 152.6 471.8 152.4 Q 474.1 152.2 476.4 152.4 Q 478.7 152.6 481.0 151.7 Q 483.3 150.8 485.6 147.9 Q 487.9 144.9 490.2 139.3 Q 492.5 133.8 494.8 128.3 Q 497.1 122.9 499.4 122.5 Q 501.7 122.0 504.0 127.0 Q 506.3 132.0 508.6 137.9 Q 510.9 143.8 513.2 147.4 Q 515.5 151.1 517.8 152.7 Q 520.1 154.3 522.4 153.8 Q 524.7 153.2 527.0 150.6 Q 529.3 148.1 531.6 145.8 Q 533.9 143.5 536.2 143.1 Q 538.5 142.7 540.8 143.6 Q 543.1 144.5 545.4 146.3 Q 547.7 148.1 550.0 149.6 Q 552.3 151.1 554.6 152.0 Q 556.9 152.9 559.2 153.2 Q 561.5 153.5 563.8 153.7 Q 566.1 154.0 568.4 154.0 Q 570.7 153.9 573.0 153.8 Q 575.3 153.7 577.6 153.9 Q 579.9 154.2 582.2 153.9 Q 584.5 153.6 586.8 153.9 Q 589.1 154.2 591.4 153.9 Q 593.7 153.7 596.0 153.9 Q 598.3 154.0 600.6 153.9 Q 602.9 153.7 605.2 153.8 Q 607.5 153.9 609.8 154.0 Q 612.1 154.2 614.4 153.9 Q 616.7 153.7 619.0 153.7 Q 621.3 153.6 623.6 153.8 Q 625.9 153.9 628.2 154.0 Q 630.5 154.0 632.8 153.8 Q 635.1 153.7 637.4 153.0 Q 639.7 152.4 642.1 149.7 Q 644.4 147.0 646.7 141.8 Q 649.0 136.7 651.3 130.8 Q 653.6 125.0 655.9 123.6 Q 658.2 122.3 660.5 126.8 Q 662.8 131.2 665.1 137.3 Q 667.4 143.4 669.7 147.0 Q 672.0 150.6 674.3 152.6 Q 676.6 154.6 678.9 154.3 Q 681.2 154.1 683.5 151.6 Q 685.8 149.1 688.1 146.8 Q 690.4 144.4 692.7 143.7 Q 695.0 142.9 697.3 143.7 Q 699.6 144.5 701.9 146.2 Q 704.2 147.8 706.5 149.3 Q 708.8 150.9 711.1 151.8 Q 713.4 152.6 715.7 153.1 Q 718.0 153.6 720.3 153.6 Q 722.6 153.6 724.9 153.4 Q 727.2 153.2 729.5 153.4 Q 731.8 153.6 734.1 153.6 Q 736.4 153.6 738.7 153.5 Q 741.0 153.3 743.3 153.2 Q 745.6 153.0 747.9 153.3 Q 750.2 153.5 752.5 153.4 Q 754.8 153.3 757.1 153.3 Q 759.4 153.3 761.7 153.4 Q 764.0 153.5 766.3 153.2 Q 768.6 152.9 770.9 153.0 Q 773.2 153.0 775.5 153.0 Q 777.8 152.9 780.1 153.0 Q 782.4 153.0 784.7 152.9 Q 787.0 152.7 789.3 152.7 Q 791.6 152.7 793.9 152.0 Q 796.2 151.4 798.5 149.2 Q 800.8 147.1 803.1 142.2 Q 805.4 137.3 807.7 131.0 Q 810.0 124.6 812.3 122.5 Q 814.6 120.4 816.9 124.1 Q 819.2 127.8 821.5 133.9 Q 823.8 140.1 826.2 144.3 Q 828.5 148.5 830.8 150.6 Q 833.1 152.7 835.4 152.7 Q 837.7 152.8 840.0 150.5 Q 842.3 148.3 844.6 145.7 Q 846.9 143.1 849.2 142.0 Q 851.5 141.0 853.8 141.5 Q 856.1 142.0 858.4 143.6 Q 860.7 145.2 863.0 146.8 Q 865.3 148.4 867.6 149.5 Q 869.9 150.6 872.2 151.0 Q 874.5 151.5 876.8 151.4 Q 879.1 151.3 881.4 151.3 Q 883.7 151.3 886.0 151.3 Q 888.3 151.4 890.6 151.3 Q 892.9 151.2 895.2 151.2 Q 897.5 151.1 899.8 151.1 Q 902.1 151.1 904.4 151.0 Q 906.7 151.0 909.0 151.1 Q 911.3 151.2 913.6 151.0 Q 915.9 150.7 918.2 151.0 Q 920.5 151.2 922.8 151.0 Q 925.1 150.8 927.4 150.8 Q 929.7 150.8 932.0 150.7 Q 934.3 150.7 936.6 150.5 Q 938.9 150.4 941.2 150.4 Q 943.5 150.4 945.8 150.6 Q 948.1 150.7 950.4 150.3 Q 952.7 149.9 955.0 147.7 Q 957.3 145.6 959.6 141.3 Q 961.9 136.9 964.2 130.7 Q 966.5 124.4 968.8 121.2 Q 971.1 118.0 973.4 121.3 Q 975.7 124.6 978.0 130.7 Q 980.3 136.9 982.6 141.2 Q 984.9 145.6 987.2 147.9 Q 989.5 150.2 991.8 150.8 Q 994.1 151.4 996.4 149.3 Q 998.7 147.2 1001.0 144.6 Q 1003.3 142.0 1005.6 140.8 Q 1007.9 139.6 1010.3 139.9 Q 1012.6 140.2 1014.9 141.8 Q 1017.2 143.4 1019.5 145.1 Q 1021.8 146.8 1024.1 147.7 Q 1026.4 148.6 1028.7 149.1 Q 1031.0 149.7 1033.3 149.8 Q 1035.6 149.9 1037.9 150.1 Q 1040.2 150.3 1042.5 150.2 Q 1044.8 150.2 1047.1 150.2 Q 1049.4 150.3 1051.7 150.2 Q 1054.0 150.2 1056.3 150.1 Q 1058.6 150.0 1060.9 150.1 Q 1063.2 150.2 1065.5 150.1 Q 1067.8 150.0 1070.1 150.0 Q 1072.4 150.0 1074.7 149.8 Q 1077.0 149.7 1079.3 150.0 Q 1081.6 150.4 1083.9 150.1 Q 1086.2 149.9 1088.5 150.0 Q 1090.8 150.1 1093.1 150.1 Q 1095.4 150.1 1097.7 150.3 T 1100.0 150.4"/>
      <animate attributeName="r" values="3;5;3" dur="1s" repeatCount="indefinite"/>
    </circle>
    <rect width="1100" height="190" fill="url(#fd)"/>
    <!-- No fade-in on the text. Anything that snapshots the SVG at t=0 (social
         card previews, link unfurls, some markdown renderers) would capture an
         invisible title. The travelling trace carries the motion instead. -->
    <g transform="translate(375.0,72)" fill="#F8F9FA"><path d="M10.5 0.4Q7.6 0.4 5.5 -0.4Q3.5 -1.2 2.4 -2.7Q1.2 -4.2 1.0 -6.2L1.0 -6.4H6.5L6.6 -6.2Q6.9 -5.0 7.8 -4.3Q8.8 -3.6 10.5 -3.6Q11.6 -3.6 12.3 -3.9Q13.1 -4.1 13.5 -4.6Q13.9 -5.1 13.9 -5.8V-5.8Q13.9 -6.7 13.3 -7.2Q12.7 -7.7 11.2 -8.0L7.6 -8.8Q5.6 -9.2 4.2 -10.0Q2.9 -10.8 2.2 -12.0Q1.5 -13.2 1.5 -14.8V-14.8Q1.5 -16.8 2.6 -18.3Q3.7 -19.7 5.6 -20.6Q7.6 -21.4 10.3 -21.4Q13.0 -21.4 15.0 -20.5Q16.9 -19.6 18.0 -18.1Q19.0 -16.6 19.1 -14.7L19.1 -14.6H13.8L13.8 -14.7Q13.7 -15.8 12.8 -16.6Q11.9 -17.3 10.3 -17.3Q9.3 -17.3 8.6 -17.1Q7.8 -16.8 7.5 -16.3Q7.1 -15.8 7.1 -15.1V-15.1Q7.1 -14.6 7.3 -14.1Q7.6 -13.7 8.2 -13.4Q8.8 -13.1 9.9 -12.9L13.5 -12.1Q15.6 -11.7 17.0 -10.9Q18.4 -10.1 19.0 -9.0Q19.6 -7.9 19.6 -6.4V-6.4Q19.6 -4.3 18.5 -2.8Q17.3 -1.3 15.2 -0.4Q13.2 0.4 10.5 0.4Z M26.2 6.9Q25.4 6.9 24.6 6.8Q23.8 6.7 23.3 6.7V2.4Q23.6 2.5 24.1 2.5Q24.6 2.6 25.2 2.6Q26.5 2.6 27.3 2.2Q28.0 1.7 28.4 0.7L28.6 0.0L21.2 -20.9H27.5L32.2 -3.4L31.5 -4.6H32.5L31.8 -3.4L36.5 -20.9H42.5L35.3 0.4Q34.5 2.8 33.3 4.3Q32.0 5.7 30.3 6.3Q28.5 6.9 26.2 6.9Z M53.6 0.4Q50.7 0.4 48.7 -0.4Q46.7 -1.2 45.5 -2.7Q44.4 -4.2 44.1 -6.2L44.1 -6.4H49.7L49.7 -6.2Q50.0 -5.0 51.0 -4.3Q51.9 -3.6 53.6 -3.6Q54.7 -3.6 55.5 -3.9Q56.2 -4.1 56.6 -4.6Q57.1 -5.1 57.1 -5.8V-5.8Q57.1 -6.7 56.5 -7.2Q55.9 -7.7 54.3 -8.0L50.8 -8.8Q48.7 -9.2 47.4 -10.0Q46.0 -10.8 45.3 -12.0Q44.6 -13.2 44.6 -14.8V-14.8Q44.6 -16.8 45.7 -18.3Q46.8 -19.7 48.8 -20.6Q50.8 -21.4 53.4 -21.4Q56.2 -21.4 58.1 -20.5Q60.1 -19.6 61.1 -18.1Q62.2 -16.6 62.2 -14.7L62.2 -14.6H57.0L57.0 -14.7Q56.8 -15.8 55.9 -16.6Q55.0 -17.3 53.4 -17.3Q52.4 -17.3 51.7 -17.1Q51.0 -16.8 50.6 -16.3Q50.2 -15.8 50.2 -15.1V-15.1Q50.2 -14.6 50.5 -14.1Q50.7 -13.7 51.4 -13.4Q52.0 -13.1 53.0 -12.9L56.6 -12.1Q58.8 -11.7 60.2 -10.9Q61.5 -10.1 62.1 -9.0Q62.8 -7.9 62.8 -6.4V-6.4Q62.8 -4.3 61.6 -2.8Q60.4 -1.3 58.4 -0.4Q56.3 0.4 53.6 0.4Z M74.4 0.4Q70.9 0.4 69.2 -1.0Q67.6 -2.5 67.6 -5.8V-16.6H64.7V-20.9H67.6V-26.0H73.3V-20.9H77.2V-16.6H73.3V-6.5Q73.3 -5.0 74.0 -4.4Q74.6 -3.9 75.9 -3.9Q76.3 -3.9 76.6 -3.9Q76.9 -3.9 77.2 -4.0V0.2Q76.7 0.3 76.0 0.4Q75.3 0.4 74.4 0.4Z M90.3 0.4Q87.1 0.4 84.8 -0.9Q82.5 -2.2 81.3 -4.6Q80.0 -7.1 80.0 -10.4V-10.4Q80.0 -13.8 81.3 -16.2Q82.5 -18.7 84.8 -20.0Q87.0 -21.4 90.1 -21.4Q93.2 -21.4 95.4 -20.1Q97.6 -18.8 98.9 -16.4Q100.1 -14.0 100.1 -10.9V-9.1H82.8V-12.7H97.4L94.7 -9.3V-11.5Q94.7 -13.4 94.1 -14.6Q93.5 -15.9 92.5 -16.5Q91.5 -17.1 90.2 -17.1Q88.9 -17.1 87.8 -16.5Q86.8 -15.8 86.2 -14.6Q85.7 -13.3 85.7 -11.5V-9.3Q85.7 -7.6 86.2 -6.4Q86.8 -5.1 87.9 -4.5Q89.0 -3.8 90.5 -3.8Q91.6 -3.8 92.5 -4.2Q93.3 -4.6 93.9 -5.1Q94.4 -5.7 94.6 -6.3L94.7 -6.4H99.9L99.9 -6.2Q99.6 -5.0 98.9 -3.9Q98.2 -2.7 97.1 -1.7Q95.9 -0.7 94.3 -0.2Q92.6 0.4 90.3 0.4Z M103.5 0.0V-20.9H109.2V-17.4H109.3Q110.0 -19.2 111.5 -20.3Q113.1 -21.4 115.2 -21.4Q116.7 -21.4 117.8 -20.9Q119.0 -20.4 119.8 -19.4Q120.6 -18.4 121.0 -17.0H121.1Q121.5 -18.4 122.5 -19.3Q123.4 -20.3 124.7 -20.8Q126.0 -21.4 127.6 -21.4Q129.6 -21.4 131.2 -20.5Q132.7 -19.6 133.6 -18.0Q134.4 -16.4 134.4 -14.3V0.0H128.7V-12.9Q128.7 -14.1 128.3 -14.9Q127.9 -15.8 127.2 -16.2Q126.4 -16.6 125.3 -16.6Q124.2 -16.6 123.4 -16.1Q122.6 -15.7 122.2 -14.8Q121.7 -13.9 121.7 -12.7V0.0H116.2V-13.1Q116.2 -14.2 115.8 -15.0Q115.4 -15.8 114.7 -16.2Q113.9 -16.6 112.8 -16.6Q111.8 -16.6 111.0 -16.1Q110.1 -15.6 109.7 -14.7Q109.2 -13.8 109.2 -12.6V0.0Z M139.2 -9.0V-13.9H151.8V-9.0Z M169.1 0.4Q167.6 0.4 166.3 -0.1Q165.1 -0.5 164.1 -1.4Q163.2 -2.3 162.6 -3.6H162.5V0.0H156.8V-28.2H162.5V-17.3H162.6Q163.2 -18.6 164.2 -19.5Q165.1 -20.4 166.4 -20.9Q167.6 -21.4 169.1 -21.4Q171.7 -21.4 173.6 -20.1Q175.5 -18.8 176.6 -16.3Q177.6 -13.9 177.6 -10.5V-10.5Q177.6 -7.1 176.6 -4.6Q175.6 -2.2 173.6 -0.9Q171.7 0.4 169.1 0.4ZM167.2 -4.3Q168.6 -4.3 169.6 -5.0Q170.7 -5.8 171.2 -7.2Q171.8 -8.6 171.8 -10.5V-10.5Q171.8 -12.4 171.2 -13.8Q170.7 -15.2 169.6 -15.9Q168.6 -16.6 167.2 -16.6Q165.8 -16.6 164.8 -15.9Q163.7 -15.1 163.1 -13.8Q162.5 -12.4 162.5 -10.5V-10.5Q162.5 -8.6 163.1 -7.2Q163.7 -5.8 164.7 -5.0Q165.8 -4.3 167.2 -4.3Z M181.1 0.0V-20.9H186.8V-17.3H186.9Q187.3 -19.2 188.6 -20.3Q189.8 -21.4 191.6 -21.4Q192.1 -21.4 192.5 -21.3Q193.0 -21.2 193.3 -21.1V-16.1Q192.9 -16.3 192.4 -16.4Q191.8 -16.4 191.2 -16.4Q189.8 -16.4 188.8 -15.9Q187.8 -15.4 187.3 -14.3Q186.8 -13.2 186.8 -11.7V0.0Z M202.3 0.3Q200.2 0.3 198.7 -0.5Q197.1 -1.3 196.2 -2.7Q195.3 -4.2 195.3 -6.0V-6.0Q195.3 -7.9 196.2 -9.3Q197.2 -10.7 199.0 -11.4Q200.8 -12.2 203.4 -12.4L211.6 -12.9V-9.4L204.3 -8.9Q202.7 -8.8 201.8 -8.1Q200.9 -7.4 200.9 -6.3V-6.3Q200.9 -5.1 201.8 -4.5Q202.7 -3.8 204.2 -3.8Q205.5 -3.8 206.5 -4.3Q207.5 -4.8 208.0 -5.7Q208.6 -6.6 208.6 -7.6V-14.0Q208.6 -15.4 207.7 -16.2Q206.9 -17.0 205.2 -17.0Q203.6 -17.0 202.6 -16.3Q201.7 -15.7 201.5 -14.7L201.4 -14.5H196.2L196.2 -14.7Q196.4 -16.7 197.5 -18.2Q198.7 -19.7 200.7 -20.5Q202.7 -21.4 205.4 -21.4Q208.1 -21.4 210.1 -20.5Q212.1 -19.6 213.2 -18.0Q214.3 -16.5 214.3 -14.4V0.0H208.6V-3.1H208.5Q207.9 -2.1 207.0 -1.3Q206.1 -0.5 204.9 -0.1Q203.7 0.3 202.3 0.3Z M218.6 0.0V-20.9H224.3V0.0ZM221.5 -23.6Q220.2 -23.6 219.3 -24.5Q218.4 -25.4 218.4 -26.6Q218.4 -27.8 219.3 -28.7Q220.2 -29.6 221.5 -29.6Q222.7 -29.6 223.6 -28.7Q224.5 -27.8 224.5 -26.6Q224.5 -25.4 223.6 -24.5Q222.7 -23.6 221.5 -23.6Z M228.6 0.0V-20.9H234.3V-17.5H234.4Q235.3 -19.3 236.9 -20.3Q238.5 -21.4 240.8 -21.4Q244.3 -21.4 246.2 -19.3Q248.0 -17.2 248.0 -13.5V0.0H242.3V-12.3Q242.3 -14.4 241.4 -15.5Q240.4 -16.6 238.5 -16.6Q237.2 -16.6 236.3 -16.1Q235.4 -15.5 234.8 -14.4Q234.3 -13.4 234.3 -12.0V0.0Z M252.8 -9.0V-13.9H265.5V-9.0Z M270.3 0.0V-20.9H276.0V-17.4H276.1Q276.8 -19.2 278.3 -20.3Q279.9 -21.4 282.0 -21.4Q283.5 -21.4 284.6 -20.9Q285.8 -20.4 286.6 -19.4Q287.4 -18.4 287.8 -17.0H287.9Q288.3 -18.4 289.3 -19.3Q290.2 -20.3 291.5 -20.8Q292.8 -21.4 294.4 -21.4Q296.4 -21.4 298.0 -20.5Q299.5 -19.6 300.4 -18.0Q301.2 -16.4 301.2 -14.3V0.0H295.5V-12.9Q295.5 -14.1 295.1 -14.9Q294.7 -15.8 294.0 -16.2Q293.2 -16.6 292.1 -16.6Q291.0 -16.6 290.2 -16.1Q289.4 -15.7 289.0 -14.8Q288.5 -13.9 288.5 -12.7V0.0H283.0V-13.1Q283.0 -14.2 282.6 -15.0Q282.2 -15.8 281.5 -16.2Q280.7 -16.6 279.6 -16.6Q278.6 -16.6 277.7 -16.1Q276.9 -15.6 276.5 -14.7Q276.0 -13.8 276.0 -12.6V0.0Z M314.9 0.4Q311.7 0.4 309.4 -0.9Q307.1 -2.2 305.8 -4.7Q304.6 -7.1 304.6 -10.5V-10.5Q304.6 -13.9 305.8 -16.3Q307.1 -18.7 309.4 -20.0Q311.7 -21.4 314.9 -21.4Q317.7 -21.4 319.8 -20.3Q321.9 -19.2 323.1 -17.4Q324.2 -15.6 324.4 -13.3L324.4 -13.2H319.1L319.0 -13.4Q318.8 -14.9 317.7 -15.9Q316.7 -16.9 314.9 -16.9Q313.5 -16.9 312.5 -16.1Q311.5 -15.4 310.9 -13.9Q310.4 -12.5 310.4 -10.5V-10.5Q310.4 -8.4 310.9 -7.0Q311.5 -5.5 312.5 -4.8Q313.5 -4.0 314.9 -4.0Q316.7 -4.0 317.7 -5.0Q318.8 -6.0 319.0 -7.6L319.1 -7.7H324.4L324.4 -7.6Q324.2 -5.3 323.0 -3.5Q321.9 -1.7 319.8 -0.6Q317.7 0.4 314.9 0.4Z M327.6 6.8V-20.9H333.3V-17.3H333.5Q334.0 -18.6 335.0 -19.5Q335.9 -20.4 337.1 -20.9Q338.4 -21.4 339.9 -21.4Q342.5 -21.4 344.4 -20.1Q346.3 -18.8 347.4 -16.3Q348.4 -13.9 348.4 -10.5V-10.5Q348.4 -7.1 347.4 -4.6Q346.4 -2.2 344.5 -0.9Q342.6 0.4 339.9 0.4Q338.4 0.4 337.2 -0.1Q335.9 -0.5 335.0 -1.4Q334.0 -2.3 333.5 -3.6H333.3V6.8ZM338.0 -4.3Q339.4 -4.3 340.4 -5.0Q341.5 -5.8 342.0 -7.2Q342.6 -8.6 342.6 -10.5V-10.5Q342.6 -12.4 342.0 -13.8Q341.5 -15.2 340.4 -15.9Q339.4 -16.6 338.0 -16.6Q336.6 -16.6 335.5 -15.9Q334.5 -15.1 333.9 -13.8Q333.3 -12.4 333.3 -10.5V-10.4Q333.3 -8.6 333.9 -7.2Q334.5 -5.8 335.5 -5.0Q336.6 -4.3 338.0 -4.3Z"/></g>
    <g transform="translate(225.9,100)" fill="#9CA3AF"><path d="M3.1 0.0 0.6 -9.5H2.1L3.9 -2.2H4.0L5.9 -9.5H7.3L9.3 -2.2H9.4L11.1 -9.5H12.7L10.1 0.0H8.7L6.7 -7.1H6.6L4.6 0.0Z M16.4 0.0V-9.5H17.9V-5.5H22.8V-9.5H24.3V0.0H22.8V-4.2H17.9V0.0Z M28.6 0.0V-9.5H34.7V-8.2H30.2V-5.5H34.5V-4.2H30.2V-1.3H34.7V0.0Z M38.8 0.0V-9.5H42.6Q43.5 -9.5 44.3 -9.2Q45.0 -8.8 45.4 -8.1Q45.7 -7.5 45.7 -6.6V-6.6Q45.7 -5.6 45.3 -4.9Q44.8 -4.2 43.9 -3.9L46.0 0.0H44.3L42.4 -3.6Q42.3 -3.6 42.3 -3.6Q42.3 -3.6 42.3 -3.6H40.3V0.0ZM40.3 -4.9H42.4Q43.3 -4.9 43.7 -5.3Q44.2 -5.7 44.2 -6.6V-6.6Q44.2 -7.4 43.7 -7.8Q43.2 -8.3 42.4 -8.3H40.3Z M49.8 0.0V-9.5H55.9V-8.2H51.3V-5.5H55.6V-4.2H51.3V-1.3H55.9V0.0Z M69.5 0.2Q68.2 0.2 67.2 -0.4Q66.3 -1.0 65.7 -2.1Q65.2 -3.2 65.2 -4.7V-4.8Q65.2 -6.3 65.7 -7.4Q66.3 -8.5 67.2 -9.1Q68.2 -9.7 69.5 -9.7Q70.6 -9.7 71.4 -9.3Q72.3 -8.9 72.8 -8.2Q73.4 -7.5 73.5 -6.5L73.5 -6.5H72.0L72.0 -6.5Q71.8 -7.1 71.5 -7.5Q71.1 -7.9 70.6 -8.2Q70.1 -8.4 69.5 -8.4Q68.7 -8.4 68.0 -8.0Q67.4 -7.5 67.1 -6.7Q66.7 -5.9 66.7 -4.8V-4.7Q66.7 -3.6 67.1 -2.8Q67.4 -2.0 68.0 -1.5Q68.7 -1.1 69.5 -1.1Q70.1 -1.1 70.6 -1.3Q71.2 -1.5 71.5 -1.9Q71.8 -2.3 72.0 -2.8L72.0 -2.9H73.5L73.5 -2.8Q73.3 -1.9 72.8 -1.2Q72.3 -0.5 71.4 -0.2Q70.6 0.2 69.5 0.2Z M81.4 0.2Q80.1 0.2 79.1 -0.4Q78.1 -1.0 77.5 -2.1Q77.0 -3.2 77.0 -4.8V-4.8Q77.0 -6.3 77.5 -7.4Q78.1 -8.5 79.1 -9.1Q80.1 -9.7 81.4 -9.7Q82.8 -9.7 83.8 -9.1Q84.8 -8.5 85.3 -7.4Q85.9 -6.3 85.9 -4.8V-4.8Q85.9 -3.2 85.3 -2.1Q84.8 -1.0 83.8 -0.4Q82.8 0.2 81.4 0.2ZM81.4 -1.1Q82.3 -1.1 83.0 -1.6Q83.6 -2.0 84.0 -2.8Q84.3 -3.6 84.3 -4.8V-4.8Q84.3 -5.9 84.0 -6.7Q83.6 -7.5 83.0 -8.0Q82.3 -8.4 81.4 -8.4Q80.5 -8.4 79.9 -8.0Q79.2 -7.5 78.9 -6.7Q78.5 -5.9 78.5 -4.8V-4.8Q78.5 -3.6 78.9 -2.8Q79.2 -2.0 79.9 -1.6Q80.5 -1.1 81.4 -1.1Z M89.8 0.0V-9.5H93.3Q94.7 -9.5 95.7 -9.0Q96.7 -8.4 97.2 -7.3Q97.8 -6.3 97.8 -4.8V-4.8Q97.8 -3.3 97.2 -2.2Q96.7 -1.1 95.7 -0.6Q94.7 0.0 93.3 0.0ZM91.4 -1.3H93.1Q94.1 -1.3 94.8 -1.7Q95.5 -2.1 95.9 -2.9Q96.2 -3.7 96.2 -4.8V-4.8Q96.2 -5.9 95.9 -6.6Q95.5 -7.4 94.8 -7.8Q94.1 -8.2 93.1 -8.2H91.4Z M101.7 0.0V-9.5H107.8V-8.2H103.3V-5.5H107.6V-4.2H103.3V-1.3H107.8V0.0Z M117.5 0.0V-9.5H121.0Q122.4 -9.5 123.4 -9.0Q124.4 -8.4 124.9 -7.3Q125.5 -6.3 125.5 -4.8V-4.8Q125.5 -3.3 124.9 -2.2Q124.4 -1.1 123.4 -0.6Q122.4 0.0 121.0 0.0ZM119.0 -1.3H120.8Q121.8 -1.3 122.5 -1.7Q123.2 -2.1 123.5 -2.9Q123.9 -3.7 123.9 -4.8V-4.8Q123.9 -5.9 123.5 -6.6Q123.2 -7.4 122.5 -7.8Q121.8 -8.2 120.8 -8.2H119.0Z M129.4 0.0V-9.5H135.5V-8.2H130.9V-5.5H135.2V-4.2H130.9V-1.3H135.5V0.0Z M140.3 -3.2V-4.5H142.9Q143.9 -4.5 144.4 -5.0Q144.9 -5.5 144.9 -6.4V-6.4Q144.9 -7.3 144.4 -7.8Q143.9 -8.2 142.9 -8.2H140.3V-9.5H143.3Q144.2 -9.5 144.9 -9.1Q145.6 -8.7 146.0 -8.0Q146.5 -7.3 146.5 -6.4V-6.4Q146.5 -5.4 146.0 -4.7Q145.6 -4.0 144.9 -3.6Q144.2 -3.2 143.3 -3.2ZM139.6 0.0V-9.5H141.1V0.0Z M150.3 0.0V-9.5H151.8V-1.3H156.3V0.0Z M164.2 0.2Q162.8 0.2 161.8 -0.4Q160.8 -1.0 160.3 -2.1Q159.7 -3.2 159.7 -4.8V-4.8Q159.7 -6.3 160.3 -7.4Q160.8 -8.5 161.8 -9.1Q162.8 -9.7 164.2 -9.7Q165.5 -9.7 166.5 -9.1Q167.5 -8.5 168.1 -7.4Q168.6 -6.3 168.6 -4.8V-4.8Q168.6 -3.2 168.1 -2.1Q167.5 -1.0 166.5 -0.4Q165.5 0.2 164.2 0.2ZM164.2 -1.1Q165.1 -1.1 165.7 -1.6Q166.4 -2.0 166.7 -2.8Q167.1 -3.6 167.1 -4.8V-4.8Q167.1 -5.9 166.7 -6.7Q166.4 -7.5 165.7 -8.0Q165.1 -8.4 164.2 -8.4Q163.3 -8.4 162.6 -8.0Q162.0 -7.5 161.6 -6.7Q161.3 -5.9 161.3 -4.8V-4.8Q161.3 -3.6 161.6 -2.8Q162.0 -2.0 162.6 -1.6Q163.3 -1.1 164.2 -1.1Z M175.2 0.0V-3.9L171.9 -9.5H173.5L175.9 -5.4H176.0L178.4 -9.5H180.1L176.7 -3.9V0.0Z M186.9 0.2Q185.8 0.2 185.0 -0.1Q184.2 -0.5 183.8 -1.1Q183.3 -1.7 183.2 -2.5L183.2 -2.6H184.7L184.7 -2.5Q184.8 -2.1 185.1 -1.7Q185.4 -1.4 185.8 -1.3Q186.3 -1.1 187.0 -1.1Q187.6 -1.1 188.0 -1.3Q188.5 -1.4 188.8 -1.8Q189.0 -2.1 189.0 -2.6V-2.6Q189.0 -3.1 188.6 -3.5Q188.2 -3.8 187.3 -4.0L186.2 -4.2Q185.3 -4.4 184.7 -4.8Q184.0 -5.2 183.7 -5.7Q183.5 -6.2 183.5 -6.9V-7.0Q183.5 -7.8 183.9 -8.4Q184.3 -9.0 185.1 -9.4Q185.9 -9.7 186.9 -9.7Q187.9 -9.7 188.7 -9.4Q189.4 -9.0 189.9 -8.5Q190.3 -7.9 190.4 -7.1L190.4 -7.0H188.9L188.9 -7.1Q188.8 -7.5 188.6 -7.8Q188.3 -8.1 187.9 -8.3Q187.5 -8.4 186.9 -8.4Q186.3 -8.4 185.9 -8.3Q185.5 -8.1 185.2 -7.8Q185.0 -7.5 185.0 -7.0V-7.0Q185.0 -6.7 185.2 -6.4Q185.3 -6.1 185.7 -5.9Q186.1 -5.7 186.7 -5.6L187.7 -5.4Q188.7 -5.2 189.4 -4.8Q190.0 -4.5 190.3 -4.0Q190.6 -3.4 190.6 -2.7V-2.7Q190.6 -1.8 190.1 -1.2Q189.7 -0.5 188.8 -0.1Q188.0 0.2 186.9 0.2Z M201.0 -2.9Q200.6 -2.9 200.3 -3.2Q200.1 -3.4 200.1 -3.8Q200.1 -4.2 200.3 -4.5Q200.6 -4.8 201.0 -4.8Q201.4 -4.8 201.7 -4.5Q202.0 -4.2 202.0 -3.8Q202.0 -3.4 201.7 -3.2Q201.4 -2.9 201.0 -2.9Z M213.9 0.0 211.3 -9.5H212.9L214.6 -2.2H214.7L216.7 -9.5H218.1L220.1 -2.2H220.2L221.9 -9.5H223.5L220.9 0.0H219.5L217.4 -7.1H217.3L215.3 0.0Z M227.2 0.0V-9.5H228.7V-5.5H233.6V-9.5H235.1V0.0H233.6V-4.2H228.7V0.0Z M238.7 0.0 242.1 -9.5H243.3V-7.8H242.9L240.3 0.0ZM240.3 -2.6 240.8 -3.8H245.1L245.5 -2.6ZM245.6 0.0 243.0 -7.8V-9.5H243.8L247.2 0.0Z M253.2 0.0V-8.2H250.2V-9.5H257.7V-8.2H254.7V0.0Z M261.8 -5.6 261.7 -9.5H263.1L263.0 -5.6Z M270.9 0.2Q269.9 0.2 269.1 -0.1Q268.3 -0.5 267.8 -1.1Q267.3 -1.7 267.3 -2.5L267.3 -2.6H268.7L268.7 -2.5Q268.8 -2.1 269.1 -1.7Q269.4 -1.4 269.9 -1.3Q270.4 -1.1 271.0 -1.1Q271.6 -1.1 272.1 -1.3Q272.5 -1.4 272.8 -1.8Q273.1 -2.1 273.1 -2.6V-2.6Q273.1 -3.1 272.6 -3.5Q272.2 -3.8 271.3 -4.0L270.3 -4.2Q269.3 -4.4 268.7 -4.8Q268.1 -5.2 267.8 -5.7Q267.5 -6.2 267.5 -6.9V-7.0Q267.5 -7.8 267.9 -8.4Q268.4 -9.0 269.2 -9.4Q269.9 -9.7 270.9 -9.7Q272.0 -9.7 272.7 -9.4Q273.5 -9.0 273.9 -8.5Q274.3 -7.9 274.4 -7.1L274.4 -7.0H272.9L272.9 -7.1Q272.9 -7.5 272.6 -7.8Q272.3 -8.1 271.9 -8.3Q271.5 -8.4 270.9 -8.4Q270.4 -8.4 269.9 -8.3Q269.5 -8.1 269.3 -7.8Q269.0 -7.5 269.0 -7.0V-7.0Q269.0 -6.7 269.2 -6.4Q269.4 -6.1 269.7 -5.9Q270.1 -5.7 270.7 -5.6L271.8 -5.4Q272.8 -5.2 273.4 -4.8Q274.0 -4.5 274.3 -4.0Q274.6 -3.4 274.6 -2.7V-2.7Q274.6 -1.8 274.1 -1.2Q273.7 -0.5 272.9 -0.1Q272.0 0.2 270.9 0.2Z M284.1 0.0V-9.5H290.1V-8.2H285.6V-5.2H289.7V-4.0H285.6V0.0Z M293.2 0.0 296.6 -9.5H297.9V-7.8H297.4L294.8 0.0ZM294.9 -2.6 295.3 -3.8H299.6L300.0 -2.6ZM300.1 0.0 297.5 -7.8V-9.5H298.3L301.7 0.0Z M306.1 0.0V-1.2H308.9Q309.9 -1.2 310.5 -1.6Q311.0 -2.0 311.0 -2.8V-2.8Q311.0 -3.3 310.7 -3.6Q310.5 -4.0 310.0 -4.2Q309.6 -4.3 308.9 -4.3H306.1V-5.5H308.6Q309.5 -5.5 310.0 -5.8Q310.5 -6.2 310.5 -6.9V-6.9Q310.5 -7.6 310.1 -7.9Q309.6 -8.3 308.8 -8.3H306.1V-9.5H309.2Q310.1 -9.5 310.7 -9.2Q311.3 -8.9 311.7 -8.4Q312.0 -7.9 312.0 -7.1V-7.1Q312.0 -6.6 311.8 -6.2Q311.6 -5.8 311.2 -5.5Q310.8 -5.2 310.4 -5.1V-5.0Q311.0 -4.9 311.5 -4.6Q312.0 -4.3 312.2 -3.8Q312.5 -3.3 312.5 -2.7V-2.7Q312.5 -1.9 312.1 -1.3Q311.7 -0.6 311.0 -0.3Q310.3 0.0 309.3 0.0ZM305.3 0.0V-9.5H306.8V0.0Z M316.4 0.0V-9.5H320.1Q321.1 -9.5 321.8 -9.2Q322.5 -8.8 322.9 -8.1Q323.3 -7.5 323.3 -6.6V-6.6Q323.3 -5.6 322.8 -4.9Q322.3 -4.2 321.5 -3.9L323.6 0.0H321.9L319.9 -3.6Q319.9 -3.6 319.9 -3.6Q319.9 -3.6 319.8 -3.6H317.9V0.0ZM317.9 -4.9H320.0Q320.8 -4.9 321.3 -5.3Q321.8 -5.7 321.8 -6.6V-6.6Q321.8 -7.4 321.3 -7.8Q320.8 -8.3 319.9 -8.3H317.9Z M327.4 0.0V-9.5H328.9V0.0Z M337.2 0.2Q335.8 0.2 334.9 -0.4Q333.9 -1.0 333.4 -2.1Q332.8 -3.2 332.8 -4.7V-4.8Q332.8 -6.3 333.4 -7.4Q333.9 -8.5 334.9 -9.1Q335.8 -9.7 337.1 -9.7Q338.2 -9.7 339.1 -9.3Q339.9 -8.9 340.4 -8.2Q341.0 -7.5 341.1 -6.5L341.1 -6.5H339.6L339.6 -6.5Q339.5 -7.1 339.1 -7.5Q338.8 -7.9 338.3 -8.2Q337.8 -8.4 337.1 -8.4Q336.3 -8.4 335.7 -8.0Q335.1 -7.5 334.7 -6.7Q334.4 -5.9 334.4 -4.8V-4.7Q334.4 -3.6 334.7 -2.8Q335.1 -2.0 335.7 -1.5Q336.3 -1.1 337.2 -1.1Q337.8 -1.1 338.3 -1.3Q338.8 -1.5 339.1 -1.9Q339.5 -2.3 339.6 -2.8L339.6 -2.9H341.1L341.1 -2.8Q341.0 -1.9 340.4 -1.2Q339.9 -0.5 339.1 -0.2Q338.2 0.2 337.2 0.2Z M344.3 0.0 347.7 -9.5H348.9V-7.8H348.5L345.9 0.0ZM346.0 -2.6 346.4 -3.8H350.7L351.1 -2.6ZM351.2 0.0 348.6 -7.8V-9.5H349.4L352.8 0.0Z M358.8 0.0V-8.2H355.8V-9.5H363.3V-8.2H360.3V0.0Z M367.1 0.0V-9.5H373.1V-8.2H368.6V-5.5H372.9V-4.2H368.6V-1.3H373.1V0.0Z M377.2 0.0V-9.5H380.7Q382.1 -9.5 383.1 -9.0Q384.1 -8.4 384.6 -7.3Q385.1 -6.3 385.1 -4.8V-4.8Q385.1 -3.3 384.6 -2.2Q384.1 -1.1 383.1 -0.6Q382.1 0.0 380.7 0.0ZM378.7 -1.3H380.5Q381.5 -1.3 382.2 -1.7Q382.9 -2.1 383.2 -2.9Q383.6 -3.7 383.6 -4.8V-4.8Q383.6 -5.9 383.2 -6.6Q382.9 -7.4 382.2 -7.8Q381.5 -8.2 380.5 -8.2H378.7Z M395.7 -2.9Q395.3 -2.9 395.0 -3.2Q394.7 -3.4 394.7 -3.8Q394.7 -4.2 395.0 -4.5Q395.3 -4.8 395.7 -4.8Q396.1 -4.8 396.4 -4.5Q396.6 -4.2 396.6 -3.8Q396.6 -3.4 396.4 -3.2Q396.1 -2.9 395.7 -2.9Z M408.5 0.0 406.0 -9.5H407.6L409.3 -2.2H409.4L411.3 -9.5H412.7L414.7 -2.2H414.8L416.5 -9.5H418.1L415.5 0.0H414.1L412.1 -7.1H412.0L410.0 0.0Z M421.9 0.0V-9.5H423.4V-5.5H428.2V-9.5H429.7V0.0H428.2V-4.2H423.4V0.0Z M434.1 0.0V-9.5H440.1V-8.2H435.6V-5.5H439.9V-4.2H435.6V-1.3H440.1V0.0Z M446.6 0.0V-8.2H443.6V-9.5H451.1V-8.2H448.1V0.0Z M454.9 0.0V-9.5H456.4V-5.5H461.2V-9.5H462.7V0.0H461.2V-4.2H456.4V0.0Z M467.1 0.0V-9.5H473.1V-8.2H468.6V-5.5H472.9V-4.2H468.6V-1.3H473.1V0.0Z M477.2 0.0V-9.5H481.0Q482.0 -9.5 482.7 -9.2Q483.4 -8.8 483.8 -8.1Q484.2 -7.5 484.2 -6.6V-6.6Q484.2 -5.6 483.7 -4.9Q483.2 -4.2 482.3 -3.9L484.5 0.0H482.7L480.8 -3.6Q480.8 -3.6 480.8 -3.6Q480.7 -3.6 480.7 -3.6H478.8V0.0ZM478.8 -4.9H480.9Q481.7 -4.9 482.2 -5.3Q482.6 -5.7 482.6 -6.6V-6.6Q482.6 -7.4 482.1 -7.8Q481.7 -8.3 480.8 -8.3H478.8Z M496.3 0.0V-8.2H493.3V-9.5H500.8V-8.2H497.8V0.0Z M504.5 0.0V-9.5H506.0V-5.5H510.9V-9.5H512.4V0.0H510.9V-4.2H506.0V0.0Z M516.8 0.0V-9.5H522.8V-8.2H518.3V-5.5H522.6V-4.2H518.3V-1.3H522.8V0.0Z M532.5 0.0V-9.5H534.0V-1.3H538.5V0.0Z M546.4 0.2Q545.0 0.2 544.0 -0.4Q543.0 -1.0 542.5 -2.1Q541.9 -3.2 541.9 -4.8V-4.8Q541.9 -6.3 542.5 -7.4Q543.0 -8.5 544.0 -9.1Q545.0 -9.7 546.4 -9.7Q547.7 -9.7 548.7 -9.1Q549.7 -8.5 550.3 -7.4Q550.8 -6.3 550.8 -4.8V-4.8Q550.8 -3.2 550.3 -2.1Q549.8 -1.0 548.8 -0.4Q547.8 0.2 546.4 0.2ZM546.4 -1.1Q547.3 -1.1 547.9 -1.6Q548.6 -2.0 548.9 -2.8Q549.3 -3.6 549.3 -4.8V-4.8Q549.3 -5.9 548.9 -6.7Q548.6 -7.5 547.9 -8.0Q547.3 -8.4 546.4 -8.4Q545.5 -8.4 544.8 -8.0Q544.2 -7.5 543.8 -6.7Q543.5 -5.9 543.5 -4.8V-4.8Q543.5 -3.6 543.8 -2.8Q544.2 -2.0 544.8 -1.6Q545.5 -1.1 546.4 -1.1Z M558.9 0.2Q557.5 0.2 556.5 -0.4Q555.5 -1.0 554.9 -2.1Q554.4 -3.2 554.4 -4.8V-4.8Q554.4 -6.3 554.9 -7.4Q555.5 -8.5 556.5 -9.1Q557.5 -9.7 558.9 -9.7Q560.2 -9.7 561.2 -9.1Q562.2 -8.5 562.8 -7.4Q563.3 -6.3 563.3 -4.8V-4.8Q563.3 -3.2 562.8 -2.1Q562.2 -1.0 561.2 -0.4Q560.2 0.2 558.9 0.2ZM558.9 -1.1Q559.7 -1.1 560.4 -1.6Q561.1 -2.0 561.4 -2.8Q561.8 -3.6 561.8 -4.8V-4.8Q561.8 -5.9 561.4 -6.7Q561.1 -7.5 560.4 -8.0Q559.7 -8.4 558.9 -8.4Q558.0 -8.4 557.3 -8.0Q556.7 -7.5 556.3 -6.7Q555.9 -5.9 555.9 -4.8V-4.8Q555.9 -3.6 556.3 -2.8Q556.6 -2.0 557.3 -1.6Q557.9 -1.1 558.9 -1.1Z M568.0 -3.2V-4.5H570.6Q571.6 -4.5 572.1 -5.0Q572.6 -5.5 572.6 -6.4V-6.4Q572.6 -7.3 572.1 -7.8Q571.6 -8.2 570.6 -8.2H568.0V-9.5H571.0Q571.9 -9.5 572.6 -9.1Q573.3 -8.7 573.7 -8.0Q574.1 -7.3 574.1 -6.4V-6.4Q574.1 -5.4 573.7 -4.7Q573.3 -4.0 572.6 -3.6Q571.9 -3.2 571.0 -3.2ZM567.3 0.0V-9.5H568.8V0.0Z M587.6 0.2Q586.2 0.2 585.3 -0.4Q584.3 -1.0 583.8 -2.1Q583.2 -3.2 583.2 -4.7V-4.8Q583.2 -6.3 583.8 -7.4Q584.3 -8.5 585.3 -9.1Q586.2 -9.7 587.6 -9.7Q588.6 -9.7 589.5 -9.3Q590.3 -8.9 590.9 -8.2Q591.4 -7.5 591.5 -6.5L591.5 -6.5H590.0L590.0 -6.5Q589.9 -7.1 589.5 -7.5Q589.2 -7.9 588.7 -8.2Q588.2 -8.4 587.6 -8.4Q586.7 -8.4 586.1 -8.0Q585.5 -7.5 585.1 -6.7Q584.8 -5.9 584.8 -4.8V-4.7Q584.8 -3.6 585.1 -2.8Q585.5 -2.0 586.1 -1.5Q586.7 -1.1 587.6 -1.1Q588.2 -1.1 588.7 -1.3Q589.2 -1.5 589.5 -1.9Q589.9 -2.3 590.0 -2.8L590.0 -2.9H591.5L591.5 -2.8Q591.4 -1.9 590.8 -1.2Q590.3 -0.5 589.5 -0.2Q588.6 0.2 587.6 0.2Z M595.4 0.0V-9.5H596.9V-1.3H601.4V0.0Z M609.3 0.2Q607.9 0.2 606.9 -0.4Q605.9 -1.0 605.4 -2.1Q604.8 -3.2 604.8 -4.8V-4.8Q604.8 -6.3 605.4 -7.4Q605.9 -8.5 606.9 -9.1Q607.9 -9.7 609.3 -9.7Q610.6 -9.7 611.6 -9.1Q612.6 -8.5 613.2 -7.4Q613.7 -6.3 613.7 -4.8V-4.8Q613.7 -3.2 613.2 -2.1Q612.6 -1.0 611.6 -0.4Q610.6 0.2 609.3 0.2ZM609.3 -1.1Q610.2 -1.1 610.8 -1.6Q611.5 -2.0 611.8 -2.8Q612.2 -3.6 612.2 -4.8V-4.8Q612.2 -5.9 611.8 -6.7Q611.5 -7.5 610.8 -8.0Q610.2 -8.4 609.3 -8.4Q608.4 -8.4 607.7 -8.0Q607.1 -7.5 606.7 -6.7Q606.4 -5.9 606.4 -4.8V-4.8Q606.4 -3.6 606.7 -2.8Q607.1 -2.0 607.7 -1.6Q608.4 -1.1 609.3 -1.1Z M620.9 0.2Q619.8 0.2 619.0 -0.1Q618.2 -0.5 617.8 -1.1Q617.3 -1.7 617.2 -2.5L617.2 -2.6H618.7L618.7 -2.5Q618.8 -2.1 619.1 -1.7Q619.4 -1.4 619.8 -1.3Q620.3 -1.1 621.0 -1.1Q621.6 -1.1 622.0 -1.3Q622.5 -1.4 622.8 -1.8Q623.0 -2.1 623.0 -2.6V-2.6Q623.0 -3.1 622.6 -3.5Q622.2 -3.8 621.3 -4.0L620.2 -4.2Q619.3 -4.4 618.6 -4.8Q618.0 -5.2 617.7 -5.7Q617.5 -6.2 617.5 -6.9V-7.0Q617.5 -7.8 617.9 -8.4Q618.3 -9.0 619.1 -9.4Q619.9 -9.7 620.9 -9.7Q621.9 -9.7 622.7 -9.4Q623.4 -9.0 623.9 -8.5Q624.3 -7.9 624.4 -7.1L624.4 -7.0H622.9L622.9 -7.1Q622.8 -7.5 622.6 -7.8Q622.3 -8.1 621.9 -8.3Q621.5 -8.4 620.9 -8.4Q620.3 -8.4 619.9 -8.3Q619.5 -8.1 619.2 -7.8Q619.0 -7.5 619.0 -7.0V-7.0Q619.0 -6.7 619.2 -6.4Q619.3 -6.1 619.7 -5.9Q620.1 -5.7 620.7 -5.6L621.7 -5.4Q622.7 -5.2 623.4 -4.8Q624.0 -4.5 624.3 -4.0Q624.6 -3.4 624.6 -2.7V-2.7Q624.6 -1.8 624.1 -1.2Q623.7 -0.5 622.8 -0.1Q622.0 0.2 620.9 0.2Z M628.5 0.0V-9.5H634.5V-8.2H630.0V-5.5H634.3V-4.2H630.0V-1.3H634.5V0.0Z M641.8 0.2Q640.8 0.2 640.0 -0.1Q639.2 -0.5 638.7 -1.1Q638.2 -1.7 638.2 -2.5L638.2 -2.6H639.6L639.7 -2.5Q639.7 -2.1 640.0 -1.7Q640.3 -1.4 640.8 -1.3Q641.3 -1.1 641.9 -1.1Q642.5 -1.1 643.0 -1.3Q643.4 -1.4 643.7 -1.8Q644.0 -2.1 644.0 -2.6V-2.6Q644.0 -3.1 643.5 -3.5Q643.1 -3.8 642.2 -4.0L641.2 -4.2Q640.2 -4.4 639.6 -4.8Q639.0 -5.2 638.7 -5.7Q638.4 -6.2 638.4 -6.9V-7.0Q638.4 -7.8 638.8 -8.4Q639.3 -9.0 640.1 -9.4Q640.8 -9.7 641.8 -9.7Q642.9 -9.7 643.6 -9.4Q644.4 -9.0 644.8 -8.5Q645.3 -7.9 645.3 -7.1L645.3 -7.0H643.8L643.8 -7.1Q643.8 -7.5 643.5 -7.8Q643.3 -8.1 642.8 -8.3Q642.4 -8.4 641.8 -8.4Q641.3 -8.4 640.8 -8.3Q640.4 -8.1 640.2 -7.8Q639.9 -7.5 639.9 -7.0V-7.0Q639.9 -6.7 640.1 -6.4Q640.3 -6.1 640.6 -5.9Q641.0 -5.7 641.6 -5.6L642.7 -5.4Q643.7 -5.2 644.3 -4.8Q644.9 -4.5 645.2 -4.0Q645.5 -3.4 645.5 -2.7V-2.7Q645.5 -1.8 645.0 -1.2Q644.6 -0.5 643.8 -0.1Q643.0 0.2 641.8 0.2Z"/></g>
  </g>
</svg>